<svg width="70" height="65" viewBox="0 0 70 65" fill="none" xmlns="http://www.w3.org/2000/svg">
<path d="M8.84932 0.155467C6.79452 0.575118 5.36986 1.21095 3.87671 2.38089C2.27397 3.61441 1.0137 5.39475 0.383562 7.27683L0 8.42133V24.7623V41.1033L0.383562 42.2478C1.47945 45.5414 4.26027 48.1229 7.80822 49.1402L9.0411 49.4963H35H60.9589L62.1918 49.1402C66.726 47.8304 69.9315 44.0027 69.9863 39.8189C70 38.6362 69.9726 38.5091 69.6301 38.0258C69.0685 37.2374 68.3973 36.9068 67.3288 36.9068C65.6712 36.9068 64.8219 37.7079 64.589 39.501C64.2603 41.9299 63.0274 43.4686 60.8356 44.1807C60.1781 44.3969 58.8356 44.4096 35 44.4096C11.1644 44.4096 9.82192 44.3969 9.16438 44.1807C7.61644 43.6848 6.41096 42.6166 5.79452 41.205L5.47945 40.4674V24.7623V9.05716L5.79452 8.3196C6.41096 6.90804 7.61644 5.83984 9.16438 5.34389C9.82192 5.1277 11.1644 5.11498 35 5.11498C58.8356 5.11498 60.1781 5.1277 60.8356 5.34389C62.3836 5.83984 63.589 6.90804 64.2055 8.3196L64.5205 9.05716L64.589 18.2259L64.6575 27.3819L65.0274 27.9033C65.589 28.6918 66.2603 29.0224 67.3288 29.0224C68.3973 29.0224 69.0685 28.6918 69.6301 27.9033L70 27.3819V17.908V8.42133L69.6164 7.27683C68.5205 3.9832 65.7397 1.4017 62.1918 0.384368L60.9589 0.0282996L35.3425 0.00286622C13.8767 -0.00985049 9.58904 0.0155829 8.84932 0.155467Z" fill="#D3E0F0"/>
<path d="M29.3425 13.6861C27.8493 14.1439 26.7671 15.0214 26.0548 16.3694L25.6165 17.196V24.7624V32.3288L26.0548 33.1554C26.6165 34.2109 27.5754 35.1011 28.6986 35.6098C29.4932 35.9658 29.726 36.004 30.8219 36.0167C31.5069 36.0167 32.274 35.9404 32.548 35.8514C32.8219 35.7624 35.9041 34.1601 39.3973 32.278C43.6986 29.9635 45.9589 28.6792 46.411 28.2849C46.8082 27.9289 47.2329 27.3566 47.5069 26.8352C47.9041 26.0468 47.9452 25.856 47.9452 24.7624C47.9452 23.6688 47.9041 23.478 47.5069 22.6896C47.2329 22.1682 46.8082 21.5959 46.411 21.2399C45.9726 20.8584 43.7945 19.5994 39.863 17.4884C36.6302 15.7463 33.5891 14.1439 33.1096 13.9278C31.9726 13.4191 30.5069 13.3301 29.3425 13.6861ZM36.7534 21.7104C39.7808 23.3381 42.2603 24.7115 42.2603 24.7624C42.2603 24.826 32.5617 30.1161 31.137 30.8283C31.0685 30.8537 31.0274 28.1323 31.0274 24.7624C31.0274 21.3925 31.0685 18.6711 31.137 18.6965C31.1918 18.722 33.7123 20.0827 36.7534 21.7104Z" fill="#D3E0F0"/>
<path d="M17.137 55.0281C16.2192 55.2443 15.0137 55.931 14.3562 56.6049L13.726 57.2535L7.75342 57.3171L1.78082 57.3807L1.26027 57.6859C0.972603 57.8512 0.575342 58.22 0.369863 58.4997C0.0547945 58.9321 0 59.161 0 59.8604C0 60.5598 0.0547945 60.7887 0.369863 61.2211C0.575342 61.5009 0.972603 61.8697 1.26027 62.035L1.78082 62.3402L7.69863 62.3783L13.6164 62.4165L13.9041 62.8361C14.3425 63.4974 15.2192 64.1714 16.2192 64.6165C17.0274 64.9725 17.2466 65.0107 18.3562 64.998C19.3014 64.998 19.7808 64.9217 20.3836 64.7055C22.5205 63.9298 23.8356 62.1367 23.8356 59.9876C23.8356 57.2153 21.6438 55.1044 18.6301 54.9518C18.1096 54.9263 17.4384 54.9645 17.137 55.0281Z" fill="#D3E0F0"/>
<path d="M31.1919 57.4572C30.5481 57.6352 29.6988 58.4618 29.507 59.1231C29.1919 60.2549 29.6714 61.4375 30.7125 62.0352L31.233 62.3404H49.7262H68.2193L68.7399 62.0352C69.0275 61.8699 69.4248 61.5011 69.6303 61.2213C69.9453 60.789 70.0001 60.5601 70.0001 59.8606C70.0001 59.1612 69.9453 58.9323 69.6303 58.4999C69.4248 58.2202 69.0275 57.8514 68.7399 57.6861L68.2193 57.3809L49.9316 57.3554C38.644 57.3427 31.4659 57.3809 31.1919 57.4572Z" fill="#D3E0F0"/>
</svg>
